<svg width="190" height="142" viewBox="0 0 190 142" fill="none" xmlns="http://www.w3.org/2000/svg">
<g filter="url(#filter0_d_36_95)">
<path d="M31.5802 131.608C11.5202 131.608 5.66935 109.668 5.25144 98.6974C5.25144 95.4978 4.01541 85.2589 7.02441 69.9007C10.7857 50.7028 7.02441 34.2474 7.02441 28.7623C7.02441 23.2772 7.75893 10.9357 19.0427 6.8219C30.3264 2.70814 37.8489 1.33672 74.2076 4.07934C110.566 6.82197 95.5213 2.70799 133.134 1.33672C170.746 -0.034561 166.985 2.70807 178.269 10.9357C189.552 19.1634 183.284 74.0144 183.284 91.841C183.284 109.668 175.761 123.38 168.239 128.865C160.716 134.351 109.313 135.722 86.7451 131.608C64.1776 127.494 56.6551 131.608 31.5802 131.608Z" fill="#77916C"/>
<path d="M76.4629 7.77332C76.4629 7.77332 89.5372 9.3574 97.9346 9.14459C106.865 8.91827 120.669 6.40204 120.669 6.40204M153.508 5.03076C153.508 5.03076 165.79 5.3919 171.265 10.5159C175.924 14.8759 178.769 25.5999 178.769 25.5999M178.778 39.3127C178.778 39.3127 179.778 45.1353 180.041 48.9116C180.6 56.939 178.463 61.438 178.787 69.4808C178.983 74.3254 180.041 81.8223 180.041 81.8223M178.769 98.2776C178.769 98.2776 177.434 109.273 173.772 114.733C170.445 119.694 162.349 124.332 162.349 124.332M118.143 125.703C118.143 125.703 108.511 126.937 102.309 127.074C93.9725 127.259 89.3306 125.921 80.995 125.703C75.2808 125.554 66.3587 125.703 66.3587 125.703M29.7306 124.332C29.7306 124.332 19.7918 120.261 15.8372 114.733C11.4419 108.588 10.7851 95.535 10.7851 95.535M12.0481 80.451C12.0481 80.451 10.8549 75.1694 10.7851 70.8521C10.7154 66.5348 13.2414 54.6002 13.3112 50.2829C13.3809 45.9656 12.0481 39.3127 12.0481 39.3127M14.5742 24.2286C14.5742 24.2286 16.0709 15.4598 19.6263 11.8871C23.7656 7.72776 33.5197 7.77332 33.5197 7.77332" stroke="#5D7952" stroke-linecap="round"/>
<path d="M140.374 24.5289C141.627 25.9002 141.627 31.3853 139.12 36.8704C137.114 41.2585 123.239 54.9256 116.552 60.8678L107.776 54.6502L99 46.4225C107.358 37.7378 126.582 17.9468 131.597 19.0438C137.866 20.4151 139.12 23.1576 140.374 24.5289Z" fill="#E9DFA9"/>
<path d="M52.0917 35.872C54.5992 41.3571 93.8832 76.0961 114.779 93.4656L119.794 83.8667L122.302 79.0673L124.809 74.2679C119.794 66.5887 81.7638 37.2433 63.3755 23.5305C54.5992 18.0454 54.5992 20.7881 53.3455 23.5305C52.2241 25.9835 50.838 33.1295 52.0917 35.872Z" fill="#E5D9A2"/>
<path d="M136.093 64.6689C132.921 64.6689 127.317 70.6111 124.809 74.2679L122.302 79.0673L119.794 83.8667L114.779 93.4656C114.779 93.4656 109.764 103.065 109.764 107.179C109.764 110.245 112.272 114.035 116.033 115.406C119.042 116.503 122.302 113.121 123.555 111.292L127.003 105.464L130.451 99.6365C131.797 97.3605 132.552 96.0845 133.899 93.8085L137.346 87.9806C139.436 84.3239 143.615 75.6391 143.615 70.154C143.615 64.6689 138.6 64.6689 136.093 64.6689Z" fill="#B89B5D"/>
<path d="M152.391 98.9508C152.391 97.8538 137.346 87.9806 137.346 87.9806L133.899 93.8085C132.552 96.0845 131.797 97.3605 130.451 99.6365C134.839 102.608 144.367 108.55 147.376 108.55C151.138 108.55 152.391 100.322 152.391 98.9508Z" fill="#997042"/>
<path d="M93.193 80.4859C93.193 81.5829 81.9149 90.3035 76.5071 94.4173C73.183 88.7416 67.7166 79.3508 64.2276 73.8482C67.0686 71.1057 74.3868 65.4019 75.6406 64.0306C76.8943 62.6593 93.193 79.1146 93.193 80.4859Z" fill="#E5D9A2"/>
<path d="M81.4466 108.13C81.4466 109.501 77.6854 114.986 71.4166 113.615C69.0397 113.095 64.879 107.01 60.5364 99.3887C58.4098 95.6566 56.2396 91.5563 54.2139 87.5609C51.6487 82.5013 49.3151 77.61 47.5954 73.8482C46.3417 66.9918 51.3567 65.6205 53.8642 65.6205C56.3717 65.6205 58.8792 66.9918 61.3867 69.7343C61.9303 70.329 62.9454 71.826 64.2276 73.8482C67.7166 79.3508 73.183 88.7416 76.5071 94.4173C77.5958 96.276 78.4547 97.7363 78.9391 98.5311C81.4466 102.645 81.4466 106.759 81.4466 108.13Z" fill="#B89B5D"/>
<path d="M41.3266 98.5311C42.3296 96.3371 50.3361 90.3035 54.2139 87.5609C56.2396 91.5563 58.4098 95.6566 60.5364 99.3887C57.0585 102.302 49.6014 108.404 47.5954 109.501C45.0879 110.873 42.5804 109.501 40.0729 106.759C37.5654 104.016 40.0729 101.274 41.3266 98.5311Z" fill="#997042"/>
<path d="M116.033 115.406C119.042 116.503 122.302 113.121 123.555 111.292L127.003 105.464L129.5 101.244C129.5 101.244 125.405 105.551 122.5 108C120.798 109.435 119.927 110.385 118 111.5C116.169 112.56 113 113.586 113 113.586C113.873 114.356 114.896 114.992 116.033 115.406Z" fill="black" fill-opacity="0.2"/>
<path d="M47.5954 109.501C45.0879 110.873 42.5804 109.501 40.0729 106.759C39.2321 105.839 38.9552 104.92 39.0058 104C39.0058 104 40.395 105.249 41.3266 106C42.3419 106.818 42.874 107.343 44 108C45.314 108.767 47.5954 109.501 47.5954 109.501Z" fill="black" fill-opacity="0.1"/>
<path d="M136.093 64.6689C132.921 64.6689 127.317 70.6111 124.809 74.2679L122.302 79.0673L119.794 83.8668L114.779 93.4656C114.779 93.4656 112.284 98.2419 110.813 102.5C110.813 102.5 116.684 94.8294 119.794 89.5C122.541 84.7927 122.976 81.5339 126 77C128.234 73.6513 129.084 71.1296 132.5 69C134.237 67.9168 135.305 67.1609 137.346 67C139.877 66.8005 143.532 69 143.532 69C142.87 64.6689 138.41 64.6689 136.093 64.6689Z" fill="white" fill-opacity="0.2"/>
<path d="M53.8642 65.6205C56.3717 65.6205 58.8792 66.9918 61.3867 69.7343C61.9303 70.329 62.9455 71.826 64.2276 73.8482C66.0392 76.7053 68.3839 80.6107 70.685 84.5C70.685 84.5 66.3256 78.9944 63.0001 76C60.0979 73.3868 58.6097 71.4904 55.0001 70C52.4864 68.9621 48.1997 68.5 48.1997 68.5C49.5359 66.2018 52.2316 65.6205 53.8642 65.6205Z" fill="white" fill-opacity="0.2"/>
<path d="M71.4164 113.615C69.7473 113.25 67.1986 110.141 64.325 105.682C64.325 105.682 67.7671 109.127 70.5 110.5C71.9907 111.249 72.8705 111.642 74.5 112C75.9094 112.31 78.1789 112.343 78.1789 112.343C76.4935 113.48 74.2026 114.225 71.4164 113.615Z" fill="black" fill-opacity="0.2"/>
<path d="M133.898 93.8085L137.346 87.9806C137.346 87.9806 137.985 88.4 139 89.0755C139 89.0755 137.334 92.7757 136 95C134.607 97.3234 132 100.667 132 100.667C131.435 100.297 130.914 99.9504 130.451 99.6365L133.898 93.8085Z" fill="black" fill-opacity="0.1"/>
<path d="M60.5364 99.3887C58.4098 95.6566 56.2396 91.5563 54.2139 87.5609C53.7053 87.9207 53.1256 88.337 52.5 88.7939C52.5 88.7939 53.8606 92.3505 55 94.5C56.3446 97.0366 59 100.668 59 100.668C59.5655 100.2 60.0845 99.7672 60.5364 99.3887Z" fill="black" fill-opacity="0.2"/>
<path d="M75.6405 64.0306C76.8943 62.6593 93.193 79.1146 93.193 80.4859C93.193 80.756 92.5094 81.4882 91.398 82.5C91.398 82.5 85.1668 77.7759 81 75C76.9696 72.3149 70.439 68.5 70.439 68.5C72.8154 66.5306 75.0056 64.725 75.6405 64.0306Z" fill="black" fill-opacity="0.2"/>
<path d="M53.3455 23.5305C52.2241 25.9835 50.838 33.1295 52.0917 35.872L124.809 74.2679C119.794 66.5887 81.7638 37.2433 63.3755 23.5305C54.5992 18.0454 54.5992 20.7881 53.3455 23.5305Z" fill="white" fill-opacity="0.2"/>
<path d="M96.3408 77.7534C103.067 83.5972 109.508 89.084 114.779 93.4656L117.447 88.3581C117.447 88.3581 111.594 86.2215 108 84.5C103.256 82.2276 96.3408 77.7534 96.3408 77.7534Z" fill="black" fill-opacity="0.2"/>
<path d="M99 46.4225C107.358 37.7378 126.582 17.9468 131.597 19.0438C135.461 19.889 137.42 21.2551 138.647 22.5C138.647 22.5 126.678 29.0443 119.5 34C112.001 39.1776 101.216 48.5 101.216 48.5L99 46.4225Z" fill="white" fill-opacity="0.2"/>
<path d="M33.2843 80.7037C23.9043 52.5362 27 4.5 27 4.5C27 4.5 17.0804 6.17881 12.5 11C10.6667 13.5 7 19.6 7 24C7 29.5 8 41.5 8 41.5C8 41.5 8.50837 49.8981 8.5 55.5C8.48412 66.1261 5.5934 71.994 4.98562 82.6959C4.42143 92.6302 4.18906 99.9407 7 109.5C10.5003 121.404 14.4999 128 25.9999 131C32.5212 132.701 47.3831 131 47.3831 131L63.9998 130C63.9998 130 52.8902 119.54 47.3831 111.583C39.8264 100.664 37.4694 93.2712 33.2843 80.7037Z" fill="black" fill-opacity="0.1"/>
<path d="M33.2844 80.7036C23.9044 52.5362 27.0002 4.49999 27.0002 4.49999C31.5001 3.66666 42.3 2.09999 49.5 2.49999C58.5 2.99999 79 4.49999 80.5 4.49999C82 4.49999 97 49 98 70C98.8 86.8 96.6667 119.167 95.5 133C95.5 133 81.5 131 80 130.5C78.5 130 63.9999 130 63.9999 130C63.9999 130 52.8904 119.54 47.3832 111.583C39.8266 100.664 37.4696 93.2712 33.2844 80.7036Z" fill="black" fill-opacity="0.05"/>
<path d="M184.5 29C185.5 41 184.5 61 184.5 61C184.5 61 173.877 41.1731 164 31.5C156.132 23.7945 151.062 19.9637 141.5 14.5C130.922 8.45562 115 2.5 115 2.5C115 2.5 137 0.5 153 0.999985C154.499 1.04684 164 1.49999 167 2.99998C168.889 3.94452 170.377 4.64786 172 5.99999C175 8.5 176 9.00001 179 11.5C181.5 13.5833 183.919 22.0242 184.5 29Z" fill="white" fill-opacity="0.15"/>
</g>
<defs>
<filter id="filter0_d_36_95" x="0.631348" y="0.919739" width="188.389" height="141.08" filterUnits="userSpaceOnUse" color-interpolation-filters="sRGB">
<feFlood flood-opacity="0" result="BackgroundImageFix"/>
<feColorMatrix in="SourceAlpha" type="matrix" values="0 0 0 0 0 0 0 0 0 0 0 0 0 0 0 0 0 0 127 0" result="hardAlpha"/>
<feOffset dy="4"/>
<feGaussianBlur stdDeviation="2"/>
<feComposite in2="hardAlpha" operator="out"/>
<feColorMatrix type="matrix" values="0 0 0 0 0 0 0 0 0 0 0 0 0 0 0 0 0 0 0.25 0"/>
<feBlend mode="normal" in2="BackgroundImageFix" result="effect1_dropShadow_36_95"/>
<feBlend mode="normal" in="SourceGraphic" in2="effect1_dropShadow_36_95" result="shape"/>
</filter>
</defs>
</svg>
