<svg preserveAspectRatio="none" width="181" height="70" viewBox="0 0 181 70" fill="none" xmlns="http://www.w3.org/2000/svg">
<path d="M11 59.5C-2 55.5 1 50.5 0 51V71.5C59.8333 71.1667 179.8 70.4 181 70V47C179.5 45 181.5 56.0754 168.5 60.5C155.5 64.9245 24.0001 63.5 11 59.5Z" fill="black" fill-opacity="0.2"/>
<path d="M165.139 3.32186C160.527 2.73621 151.9 2.72637 146.376 2.67213C141.61 2.62532 138.876 2.78959 134.077 3.0167C127.859 3.311 123.138 3.42003 119.531 3.64728C113.791 4.00895 114.734 4.69484 118.5 4.86482C122.267 5.0348 133.225 5.63482 137.014 6.07329C140.803 6.51175 159.986 8.89539 162.11 10.1143C162.839 10.5324 163.577 10.7229 164.478 11.2183C165.536 11.7997 166.503 12.4936 167.091 12.9265C168.132 13.6943 169.582 15.4722 170.102 15.9863C172.598 18.4538 174.717 18.3202 175.406 18.2768C176.095 18.2334 176.868 17.6443 177.35 17.0254C177.831 16.4064 177.973 15.6589 178.181 15.0398C178.296 14.6967 178.323 13.5407 178.16 12.6058C177.987 11.6186 177.456 10.6108 177.292 10.2214C176.828 9.12175 174.808 6.91932 174.255 6.38349C172.656 4.8354 169.817 3.91584 165.139 3.32186Z" fill="#9CB591" fill-opacity="0.6"/>
<path d="M1.84999 50.2209C1.70188 49.3445 1.8503 48.5404 1.85023 47.0567C1.85019 46.3197 1.85041 45.795 1.85041 45.0575C1.85041 38.1072 1.45497 34.2347 2.15909 27.3708C2.33361 25.6695 2.98574 23.7854 3.39525 27.3708C3.80476 30.9563 3.93786 32.7247 4.62078 38.7041C4.91977 41.3219 5.42927 44.3659 6.22208 47.0567C6.66439 48.5579 6.6813 48.6045 7.94589 49.8555C8.52258 50.426 9.07097 50.8897 9.56013 51.279C10.5572 52.0725 11.1465 52.6258 11.5511 53.007C12.192 53.6108 12.1825 54.3747 12.192 54.8257C12.2031 55.3495 11.9622 55.7241 11.5511 56.1585C10.9085 56.8375 9.50271 57.007 7.94589 56.704C7.22732 56.3725 6.94692 56.5962 5.81552 55.8026L5.77409 55.7735C5.00697 55.2354 4.43315 54.833 4.07732 54.5202C3.67556 54.1671 3.42633 53.9011 2.72884 53.007C2.08236 52.1783 1.99809 51.0973 1.84999 50.2209Z" fill="#9CB591" fill-opacity="0.6"/>
</svg>
